HIERARCHY
ROOT newVegas:Hips
{
	OFFSET 0.000000 96.479958 0.000000
	CHANNELS 6 Xposition Yposition Zposition Xrotation Yrotation Zrotation
	JOINT newVegas:Pelvis
	{
		OFFSET 0.000000 0.000000 0.000000
		CHANNELS 3 Xrotation Yrotation Zrotation
		JOINT newVegas:LeftUpLeg
		{
			OFFSET 18.735201 -5.666702 -4.541200
			CHANNELS 3 Xrotation Yrotation Zrotation
			JOINT newVegas:LeftLeg
			{
				OFFSET -0.021200 -31.938179 0.493100
				CHANNELS 3 Xrotation Yrotation Zrotation
				JOINT newVegas:LeftFoot
				{
					OFFSET 0.021200 -31.938179 -4.336299
					CHANNELS 3 Xrotation Yrotation Zrotation
					JOINT newVegas:LeftToeBase
					{
						OFFSET 0.943001 -26.722000 15.023500
						CHANNELS 3 Xrotation Yrotation Zrotation
						End Site
						{
							OFFSET 0.000000 30.670183 0.000000
						}
					}
				}
				JOINT newVegas:Left_PantLeg
				{
					OFFSET 0.663870 -9.044666 -1.108900
					CHANNELS 3 Xrotation Yrotation Zrotation
					End Site
					{
						OFFSET 1.415995 20.635357 0.000000
					}
				}
			}
		}
		JOINT newVegas:RightUpLeg
		{
			OFFSET -18.735201 -5.666702 -4.541200
			CHANNELS 3 Xrotation Yrotation Zrotation
			JOINT newVegas:RightLeg
			{
				OFFSET 0.018946 -31.938133 0.493100
				CHANNELS 3 Xrotation Yrotation Zrotation
				JOINT newVegas:RightFoot
				{
					OFFSET -0.018946 -31.938126 -4.336299
					CHANNELS 3 Xrotation Yrotation Zrotation
					JOINT newVegas:RightToeBase
					{
						OFFSET -0.943001 -26.722004 15.023500
						CHANNELS 3 Xrotation Yrotation Zrotation
						End Site
						{
							OFFSET 0.000000 30.670187 0.000000
						}
					}
				}
				JOINT newVegas:Right_PantLeg
				{
					OFFSET -0.661674 -9.044716 -1.108900
					CHANNELS 3 Xrotation Yrotation Zrotation
					End Site
					{
						OFFSET -1.415958 20.635269 0.000000
					}
				}
			}
		}
	}
	JOINT newVegas:Spine
	{
		OFFSET 0.000000 10.199997 -0.299500
		CHANNELS 3 Xrotation Yrotation Zrotation
		JOINT newVegas:Spine1
		{
			OFFSET 0.000000 11.900002 -1.516600
			CHANNELS 3 Xrotation Yrotation Zrotation
			JOINT newVegas:Spine2
			{
				OFFSET 0.000000 13.600006 -2.842500
				CHANNELS 3 Xrotation Yrotation Zrotation
				JOINT newVegas:Neck
				{
					OFFSET 0.000000 9.624100 -2.890100
					CHANNELS 3 Xrotation Yrotation Zrotation
					JOINT newVegas:Head
					{
						OFFSET 0.000000 14.068802 -1.351900
						CHANNELS 3 Xrotation Yrotation Zrotation
						JOINT newVegas:Hair_Back
						{
							OFFSET 0.000000 3.231903 -17.524799
							CHANNELS 3 Xrotation Yrotation Zrotation
							End Site
							{
								OFFSET 0.000000 19.849884 0.000000
							}
						}
						JOINT newVegas:Hair_Front
						{
							OFFSET 0.000000 31.260406 4.573800
							CHANNELS 3 Xrotation Yrotation Zrotation
							JOINT newVegas:Hair_Front1
							{
								OFFSET 0.000000 2.284103 11.993300
								CHANNELS 3 Xrotation Yrotation Zrotation
								JOINT newVegas:Hair_Front2
								{
									OFFSET 0.000000 2.284103 11.993300
									CHANNELS 3 Xrotation Yrotation Zrotation
									End Site
									{
										OFFSET 0.000000 12.208862 0.000000
									}
								}
							}
						}
						JOINT newVegas:Jowel
						{
							OFFSET 0.000000 -7.458206 6.864100
							CHANNELS 3 Xrotation Yrotation Zrotation
							End Site
							{
								OFFSET 0.000000 19.849884 0.000000
							}
						}
					}
				}
				JOINT newVegas:LeftShoulder
				{
					OFFSET 15.263000 10.923401 -0.547700
					CHANNELS 3 Xrotation Yrotation Zrotation
					JOINT newVegas:LeftArm
					{
						OFFSET 25.438599 -2.830597 -13.032500
						CHANNELS 3 Xrotation Yrotation Zrotation
						JOINT newVegas:LeftForeArm
						{
							OFFSET 29.960503 0.000000 0.000000
							CHANNELS 3 Xrotation Yrotation Zrotation
							JOINT newVegas:LeftHand
							{
								OFFSET 27.849251 0.000000 0.000000
								CHANNELS 3 Xrotation Yrotation Zrotation
								JOINT newVegas:LeftHandThumb1
								{
									OFFSET 4.487587 -3.305161 6.305391
									CHANNELS 3 Xrotation Yrotation Zrotation
									JOINT newVegas:LeftHandThumb2
									{
										OFFSET 5.480453 -3.164139 3.164143
										CHANNELS 3 Xrotation Yrotation Zrotation
										JOINT newVegas:LeftHandThumb3
										{
											OFFSET 5.159721 -2.978973 2.978967
											CHANNELS 3 Xrotation Yrotation Zrotation
											End Site
											{
												OFFSET 2.494507 5.926697 1.738678
											}
										}
									}
								}
								JOINT newVegas:LeftHandIndex1
								{
									OFFSET 18.578728 -0.527832 5.208049
									CHANNELS 3 Xrotation Yrotation Zrotation
									JOINT newVegas:LeftHandIndex2
									{
										OFFSET 3.192009 0.000000 0.000000
										CHANNELS 3 Xrotation Yrotation Zrotation
										JOINT newVegas:LeftHandIndex3
										{
											OFFSET 3.835129 0.000000 0.000000
											CHANNELS 3 Xrotation Yrotation Zrotation
											End Site
											{
												OFFSET -0.034599 3.816971 0.371180
											}
										}
									}
								}
								JOINT newVegas:LeftHandMiddle1
								{
									OFFSET 18.476105 0.000000 0.000000
									CHANNELS 3 Xrotation Yrotation Zrotation
									JOINT newVegas:LeftHandMiddle2
									{
										OFFSET 3.324875 0.000000 0.000000
										CHANNELS 3 Xrotation Yrotation Zrotation
										JOINT newVegas:LeftHandMiddle3
										{
											OFFSET 4.596550 0.000000 0.000000
											CHANNELS 3 Xrotation Yrotation Zrotation
											End Site
											{
												OFFSET 0.057701 4.578827 0.399218
											}
										}
									}
								}
								JOINT newVegas:LeftHandRing1
								{
									OFFSET 17.732719 0.121887 -4.201567
									CHANNELS 3 Xrotation Yrotation Zrotation
									JOINT newVegas:LeftHandRing2
									{
										OFFSET 2.733170 0.000000 0.000000
										CHANNELS 3 Xrotation Yrotation Zrotation
										JOINT newVegas:LeftHandRing3
										{
											OFFSET 3.178268 0.000000 0.000000
											CHANNELS 3 Xrotation Yrotation Zrotation
											End Site
											{
												OFFSET 0.119102 3.170624 0.185394
											}
										}
									}
								}
								JOINT newVegas:LeftHandPinky1
								{
									OFFSET 15.989624 -0.606689 -7.535461
									CHANNELS 3 Xrotation Yrotation Zrotation
									JOINT newVegas:LeftHandPinky2
									{
										OFFSET 2.538986 0.000000 0.000000
										CHANNELS 3 Xrotation Yrotation Zrotation
										JOINT newVegas:LeftHandPinky3
										{
											OFFSET 2.593102 0.000000 0.000000
											CHANNELS 3 Xrotation Yrotation Zrotation
											End Site
											{
												OFFSET -0.150902 2.584198 0.152708
											}
										}
									}
								}
							}
							JOINT newVegas:Left_Sleeve
							{
								OFFSET 0.267448 -0.649796 0.577675
								CHANNELS 3 Xrotation Yrotation Zrotation
								End Site
								{
									OFFSET 0.000000 15.991241 0.000000
								}
							}
							JOINT newVegas:Left_CapeC
							{
								OFFSET 15.715958 -8.608795 -6.935905
								CHANNELS 3 Xrotation Yrotation Zrotation
								JOINT newVegas:Left_CapeC1
								{
									OFFSET 0.000000 -8.688499 0.000000
									CHANNELS 3 Xrotation Yrotation Zrotation
									End Site
									{
										OFFSET 0.000000 8.688499 0.000000
									}
								}
							}
						}
						JOINT newVegas:Left_CapeB
						{
							OFFSET 26.118385 -8.608795 -7.079235
							CHANNELS 3 Xrotation Yrotation Zrotation
							JOINT newVegas:Left_CapeB1
							{
								OFFSET 0.000000 -8.688499 0.000000
								CHANNELS 3 Xrotation Yrotation Zrotation
								End Site
								{
									OFFSET 0.000000 8.688499 0.000000
								}
							}
						}
						JOINT newVegas:Left_CapeA
						{
							OFFSET 5.115639 -8.608795 -10.395809
							CHANNELS 3 Xrotation Yrotation Zrotation
							JOINT newVegas:Left_CapeA1
							{
								OFFSET 0.000000 -8.688499 0.000000
								CHANNELS 3 Xrotation Yrotation Zrotation
								End Site
								{
									OFFSET 0.000000 8.688499 0.000000
								}
							}
						}
					}
				}
				JOINT newVegas:RightShoulder
				{
					OFFSET -15.263000 10.923401 -0.547700
					CHANNELS 3 Xrotation Yrotation Zrotation
					JOINT newVegas:RightArm
					{
						OFFSET -25.438599 -2.830597 -13.032500
						CHANNELS 3 Xrotation Yrotation Zrotation
						JOINT newVegas:RightForeArm
						{
							OFFSET -29.960503 0.000000 0.000000
							CHANNELS 3 Xrotation Yrotation Zrotation
							JOINT newVegas:RightHand
							{
								OFFSET -27.849251 0.000000 0.000000
								CHANNELS 3 Xrotation Yrotation Zrotation
								JOINT newVegas:RightHandThumb1
								{
									OFFSET -4.487587 -3.305161 6.305391
									CHANNELS 3 Xrotation Yrotation Zrotation
									JOINT newVegas:RightHandThumb2
									{
										OFFSET -5.480453 -3.164139 3.164143
										CHANNELS 3 Xrotation Yrotation Zrotation
										JOINT newVegas:RightHandThumb3
										{
											OFFSET -5.159721 -2.978973 2.978967
											CHANNELS 3 Xrotation Yrotation Zrotation
											End Site
											{
												OFFSET -2.494507 5.926697 1.738678
											}
										}
									}
								}
								JOINT newVegas:RightHandIndex1
								{
									OFFSET -18.578728 -0.527832 5.208049
									CHANNELS 3 Xrotation Yrotation Zrotation
									JOINT newVegas:RightHandIndex2
									{
										OFFSET -3.192009 0.000000 0.000000
										CHANNELS 3 Xrotation Yrotation Zrotation
										JOINT newVegas:RightHandIndex3
										{
											OFFSET -3.835129 0.000000 0.000000
											CHANNELS 3 Xrotation Yrotation Zrotation
											End Site
											{
												OFFSET 0.034599 3.816971 0.371180
											}
										}
									}
								}
								JOINT newVegas:RightHandMiddle1
								{
									OFFSET -18.476105 0.000000 0.000000
									CHANNELS 3 Xrotation Yrotation Zrotation
									JOINT newVegas:RightHandMiddle2
									{
										OFFSET -3.324875 0.000000 0.000000
										CHANNELS 3 Xrotation Yrotation Zrotation
										JOINT newVegas:RightHandMiddle3
										{
											OFFSET -4.596550 0.000000 0.000000
											CHANNELS 3 Xrotation Yrotation Zrotation
											End Site
											{
												OFFSET -0.057701 4.578827 0.399218
											}
										}
									}
								}
								JOINT newVegas:RightHandRing1
								{
									OFFSET -17.732719 0.121887 -4.201567
									CHANNELS 3 Xrotation Yrotation Zrotation
									JOINT newVegas:RightHandRing2
									{
										OFFSET -2.733170 0.000000 0.000000
										CHANNELS 3 Xrotation Yrotation Zrotation
										JOINT newVegas:RightHandRing3
										{
											OFFSET -3.178268 0.000000 0.000000
											CHANNELS 3 Xrotation Yrotation Zrotation
											End Site
											{
												OFFSET -0.119102 3.170624 0.185394
											}
										}
									}
								}
								JOINT newVegas:RightHandPinky1
								{
									OFFSET -15.989624 -0.606689 -7.535461
									CHANNELS 3 Xrotation Yrotation Zrotation
									JOINT newVegas:RightHandPinky2
									{
										OFFSET -2.538986 0.000000 0.000000
										CHANNELS 3 Xrotation Yrotation Zrotation
										JOINT newVegas:RightHandPinky3
										{
											OFFSET -2.593102 0.000000 0.000000
											CHANNELS 3 Xrotation Yrotation Zrotation
											End Site
											{
												OFFSET 0.150902 2.584198 0.152708
											}
										}
									}
								}
							}
							JOINT newVegas:Right_CapeC
							{
								OFFSET -15.715958 -8.608795 -6.935905
								CHANNELS 3 Xrotation Yrotation Zrotation
								JOINT newVegas:Right_CapeC1
								{
									OFFSET 0.000000 -8.688499 0.000000
									CHANNELS 3 Xrotation Yrotation Zrotation
									End Site
									{
										OFFSET 0.000000 8.688499 0.000000
									}
								}
							}
							JOINT newVegas:Right_Sleeve
							{
								OFFSET -0.267448 -0.649994 0.577675
								CHANNELS 3 Xrotation Yrotation Zrotation
								End Site
								{
									OFFSET 0.000000 15.991302 0.000000
								}
							}
						}
						JOINT newVegas:Right_CapeA
						{
							OFFSET -5.115540 -8.608795 -10.395824
							CHANNELS 3 Xrotation Yrotation Zrotation
							JOINT newVegas:Right_CapeA1
							{
								OFFSET 0.000000 -8.688499 0.000000
								CHANNELS 3 Xrotation Yrotation Zrotation
								End Site
								{
									OFFSET 0.000000 8.688499 0.000000
								}
							}
						}
						JOINT newVegas:Right_CapeB
						{
							OFFSET -26.118187 -8.608795 -7.079266
							CHANNELS 3 Xrotation Yrotation Zrotation
							JOINT newVegas:Right_CapeB1
							{
								OFFSET 0.000000 -8.688499 0.000000
								CHANNELS 3 Xrotation Yrotation Zrotation
								End Site
								{
									OFFSET 0.000000 8.688499 0.000000
								}
							}
						}
					}
				}
				JOINT newVegas:Left_Collar
				{
					OFFSET 18.625099 8.655502 8.828100
					CHANNELS 3 Xrotation Yrotation Zrotation
					JOINT newVegas:Left_Collar1
					{
						OFFSET 14.783401 10.540405 -1.259500
						CHANNELS 3 Xrotation Yrotation Zrotation
						End Site
						{
							OFFSET 0.000000 18.199875 0.000000
						}
					}
				}
				JOINT newVegas:Collar_Back
				{
					OFFSET 0.000000 15.630707 -20.132601
					CHANNELS 3 Xrotation Yrotation Zrotation
					End Site
					{
						OFFSET 0.000000 22.523010 0.000000
					}
				}
				JOINT newVegas:Left_Peck
				{
					OFFSET 17.239599 -5.132599 25.482599
					CHANNELS 3 Xrotation Yrotation Zrotation
					End Site
					{
						OFFSET 0.000000 22.523010 0.000000
					}
				}
				JOINT newVegas:Right_Peck
				{
					OFFSET -17.239599 -5.132202 25.482599
					CHANNELS 3 Xrotation Yrotation Zrotation
					End Site
					{
						OFFSET 0.000000 22.523010 0.000000
					}
				}
				JOINT newVegas:Right_Collar
				{
					OFFSET -18.625099 8.655792 8.828100
					CHANNELS 3 Xrotation Yrotation Zrotation
					JOINT newVegas:Right_Collar1
					{
						OFFSET -14.783401 10.539993 -1.259500
						CHANNELS 3 Xrotation Yrotation Zrotation
						End Site
						{
							OFFSET 0.000000 18.199631 0.000000
						}
					}
				}
			}
		}
		JOINT newVegas:Belly
		{
			OFFSET 0.000000 -6.540398 9.014299
			CHANNELS 3 Xrotation Yrotation Zrotation
			End Site
			{
				OFFSET 0.000000 11.566666 0.000000
			}
		}
	}
	JOINT newVegas:ElvisFacialAnim_Joint
	{
		OFFSET 1.000000 -95.330101 -8.825800
		CHANNELS 3 Xrotation Yrotation Zrotation
		End Site
		{
			OFFSET 0.000000 35.315800 0.000000
		}
	}
}
MOTION
Frames: 4
Frame Time: 0.033333
1.146105 86.261261 4.531916 -0.728948 25.643327 -12.080440 0.000000 0.000001 -0.000000 -39.296561 5.223070 27.985032 67.678179 7.180432 5.521761 -28.363602 4.729924 -14.142417 0.000000 0.000003 -0.000000 -0.000001 0.000001 0.000001 -18.618652 -6.141817 -10.792949 10.192095 9.856427 -0.470087 7.704857 0.047064 22.025941 0.000000 0.000002 0.000000 -0.000000 -0.000001 0.000000 3.577437 0.024635 -2.477806 7.154027 0.095317 -2.973119 7.154023 0.095307 -2.973125 -0.630899 6.662884 0.188220 -0.630903 6.662882 0.188229 0.000000 0.000000 -0.000001 -0.630894 6.662876 0.188211 -0.630887 6.662902 0.188212 0.000000 0.000001 -0.000001 0.000000 0.000000 -0.000000 4.244976 -11.871462 -4.596056 3.206730 -13.658986 -39.486027 44.442169 -32.013172 -9.093626 8.563442 2.356029 -1.711998 -0.310797 1.877997 -0.804770 2.334047 6.709358 2.157434 0.000001 0.000001 -0.000003 21.633934 -9.701263 -1.890204 -0.393670 -0.344140 -26.616066 0.000001 -0.000003 -0.000001 -0.091007 1.012612 -8.136035 -0.367901 -1.400883 -20.266134 -0.000001 -0.000002 -0.000003 -0.021869 7.581242 -14.464963 -0.301297 -2.189638 -22.915430 -0.000000 -0.000001 0.000003 -0.077049 13.537242 -9.274708 -0.598031 -5.643789 -32.402643 -0.000001 -0.000003 -0.000000 -0.000005 -0.000001 -0.000001 -0.000005 -0.000001 -0.000001 -0.000006 -0.000001 -0.000001 -0.000000 -0.000001 -0.000000 -0.000000 -0.000001 -0.000002 -0.000000 -0.000001 -0.000000 0.000000 -0.000002 -0.000000 3.619522 -3.925393 14.335568 22.740785 -20.338819 60.063167 33.627671 50.001056 -2.090193 18.221492 -18.898485 13.352308 -6.896638 1.280034 -10.377019 -0.642361 -0.093878 -1.289345 0.000001 -0.000000 -0.000001 -1.234564 0.594298 8.695255 0.120972 -1.121022 16.859960 -0.000003 -0.000001 0.000000 -1.166210 -1.292576 6.668368 -0.423418 1.296764 23.919029 0.000002 -0.000001 0.000001 1.941240 -0.208502 -0.638208 -2.303078 4.922557 57.675511 -0.000000 0.000004 -0.000001 2.024437 -3.861733 6.560848 -2.033749 8.412637 51.197247 0.000002 0.000002 -0.000001 -0.000001 -0.000001 0.000001 -0.000001 -0.000001 0.000001 -0.000001 -0.000001 0.000002 -0.000002 0.000002 -0.000001 -0.000002 0.000002 -0.000002 -0.000002 0.000002 -0.000001 -0.000002 0.000002 -0.000000 -0.000001 0.000000 0.000001 -0.000001 0.000000 0.000001 -0.000001 0.000000 0.000001 -0.000001 0.000000 0.000001 -0.000001 0.000000 0.000001 -0.000001 0.000000 0.000001 -0.000001 0.000000 0.000001 -0.000000 -0.000001 0.000000 0.000000 0.000001 -0.000000 
1.149809 86.273445 4.507296 -0.581245 25.976857 -12.199292 -0.000000 -0.000001 0.000000 -39.514813 4.893915 27.717094 67.659430 7.219683 5.652811 -28.196510 4.721957 -14.142953 0.000000 -0.000001 0.000000 -0.000001 0.000000 -0.000000 -18.412453 -6.325012 -10.813985 9.928293 9.861691 -0.417942 7.671040 -0.143929 22.043129 -0.000000 -0.000000 0.000000 -0.000001 0.000001 -0.000003 3.616756 0.015284 -2.479812 7.232769 0.083884 -2.972889 7.232761 0.083879 -2.972883 -0.622250 6.626162 0.260729 -0.622248 6.626161 0.260726 -0.000001 -0.000001 -0.000000 -0.622256 6.626144 0.260739 -0.622248 6.626143 0.260728 -0.000000 0.000001 -0.000000 -0.000001 -0.000001 -0.000001 4.256849 -11.959843 -4.595488 3.416197 -14.221743 -38.967636 44.403138 -32.050287 -9.095100 7.958330 2.336402 -1.746731 -0.310798 1.877997 -0.804769 2.412183 6.892131 2.072967 0.000001 -0.000004 -0.000003 21.634621 -9.696507 -1.890016 -0.397113 -0.356436 -26.722388 0.000002 -0.000001 -0.000002 -0.085154 1.039146 -8.115241 -0.368627 -1.402884 -20.292200 -0.000001 0.000003 -0.000000 -0.014255 7.605652 -14.455595 -0.301303 -2.189674 -22.915865 -0.000001 -0.000001 -0.000001 -0.129428 13.443486 -9.252576 -0.597187 -5.642513 -32.389461 -0.000001 -0.000004 0.000005 0.000000 -0.000001 -0.000000 0.000000 -0.000001 -0.000000 -0.000001 -0.000000 -0.000000 0.000000 -0.000001 -0.000002 0.000001 -0.000001 -0.000002 0.000000 -0.000001 -0.000002 0.000001 -0.000001 -0.000002 3.608616 -3.796442 14.368331 22.810078 -20.442724 60.217427 33.663315 50.130508 -2.149278 17.285062 -18.831566 13.177814 -6.896638 1.280039 -10.377015 -0.277769 -1.037090 -1.073344 0.000002 -0.000000 0.000003 -1.209767 0.685012 8.375367 0.086456 -1.084972 17.304723 -0.000003 -0.000000 0.000001 -1.190716 -1.083495 6.669707 -0.425495 1.301465 24.002174 0.000003 0.000004 -0.000000 1.953749 -0.247734 -0.618639 -2.307290 4.925215 57.721696 -0.000001 0.000002 -0.000001 2.029831 -3.879396 6.717015 -2.031598 8.410928 51.181285 0.000001 0.000003 -0.000000 0.000000 0.000001 0.000001 0.000000 -0.000001 -0.000001 0.000000 0.000000 0.000000 -0.000001 -0.000003 0.000003 -0.000001 -0.000003 0.000002 -0.000001 -0.000003 0.000003 -0.000001 -0.000003 0.000003 -0.000000 0.000000 -0.000002 -0.000000 0.000000 -0.000002 -0.000000 0.000000 -0.000002 -0.000000 0.000000 -0.000002 -0.000000 0.000000 -0.000002 -0.000000 0.000000 -0.000002 -0.000000 0.000000 -0.000002 -0.000000 -0.000001 -0.000001 -0.000000 -0.000001 0.000000 
1.144665 86.286552 4.475239 -0.389258 26.344943 -12.377817 -0.000000 -0.000001 -0.000001 -39.846552 4.550371 27.551728 67.670229 7.141126 5.748637 -27.997301 4.698427 -14.102456 0.000000 -0.000002 0.000000 -0.000001 -0.000001 -0.000000 -18.129416 -6.525593 -10.789654 9.493731 9.837119 -0.352379 7.697184 -0.365473 22.068271 -0.000000 0.000000 0.000000 0.000001 0.000001 -0.000000 3.679953 0.010391 -2.471417 7.359216 0.084434 -2.949440 7.359216 0.084428 -2.949448 -0.602423 6.512674 0.423171 -0.602418 6.512690 0.423169 -0.000000 -0.000000 0.000002 -0.602409 6.512680 0.423167 -0.602339 6.512689 0.423162 0.000001 -0.000002 0.000000 -0.000000 -0.000000 0.000001 4.258764 -12.004126 -4.594566 3.465652 -15.091815 -38.301874 44.338436 -32.101271 -9.106263 7.293179 2.280546 -1.714626 -0.310795 1.878000 -0.804763 2.609991 7.345702 1.859935 0.000002 0.000001 -0.000001 21.636134 -9.687318 -1.893814 -0.401644 -0.368706 -26.831112 -0.000001 -0.000000 -0.000002 -0.089563 1.022178 -8.031405 -0.369924 -1.406865 -20.330714 -0.000000 0.000001 -0.000002 -0.002642 7.643660 -14.383417 -0.302324 -2.192057 -22.946289 -0.000001 -0.000000 -0.000003 -0.163545 13.400028 -9.192013 -0.603493 -5.652213 -32.488908 -0.000001 -0.000005 -0.000004 -0.000002 0.000000 0.000001 -0.000002 0.000000 0.000001 -0.000003 0.000000 0.000001 -0.000000 0.000001 0.000002 0.000000 0.000001 0.000002 -0.000000 0.000001 0.000002 0.000000 0.000001 0.000002 3.607334 -3.666272 14.395814 22.895136 -20.594969 60.396679 33.721631 50.343152 -2.238989 16.392147 -18.767435 12.904935 -6.896637 1.280034 -10.377017 -0.224140 -1.647619 -0.954874 -0.000000 0.000000 0.000003 -1.209549 0.815823 8.303446 0.121480 -1.121568 16.853087 0.000003 -0.000002 0.000002 -1.208641 -0.931009 6.676634 -0.427339 1.305600 24.075245 0.000004 -0.000001 0.000001 1.938757 -0.186012 -0.513818 -2.319088 4.932628 57.851286 -0.000002 -0.000003 0.000004 2.020440 -3.831473 6.798997 -2.034994 8.413632 51.206652 0.000003 0.000001 0.000001 -0.000002 0.000000 -0.000001 0.000001 -0.000001 -0.000000 -0.000002 0.000000 -0.000000 -0.000001 -0.000001 -0.000001 -0.000001 0.000000 -0.000000 -0.000001 -0.000001 -0.000001 -0.000001 0.000000 0.000002 0.000000 -0.000001 -0.000000 0.000000 -0.000001 -0.000000 0.000000 -0.000001 -0.000000 0.000000 -0.000001 -0.000000 0.000000 -0.000001 -0.000000 0.000000 -0.000001 -0.000000 0.000000 -0.000001 -0.000000 0.000001 -0.000001 0.000001 -0.000000 -0.000001 -0.000001 
1.092978 86.245407 4.419731 0.066121 26.588134 -12.754207 -0.000000 0.000002 -0.000001 -40.596261 4.162050 27.624429 67.865552 6.930064 5.756541 -27.792549 4.668699 -14.032171 -0.000000 -0.000002 0.000000 -0.000000 -0.000002 0.000002 -18.191263 -6.509174 -10.650812 9.120194 9.700901 -0.253166 7.847947 -0.640090 22.088226 -0.000000 -0.000000 0.000000 0.000000 -0.000002 -0.000001 3.714901 0.043404 -2.446726 7.428854 0.175057 -2.883749 7.428848 0.175049 -2.883741 -0.562843 6.355983 0.645588 -0.562831 6.355991 0.645557 -0.000000 0.000005 -0.000001 -0.562833 6.355994 0.645572 -0.562763 6.356011 0.645556 -0.000000 -0.000001 0.000000 -0.000000 0.000005 -0.000001 4.262439 -11.917012 -4.594505 3.435939 -16.332222 -37.423542 44.247523 -32.098184 -9.137081 6.785458 2.084093 -1.750465 -0.310795 1.878000 -0.804767 2.842290 7.865529 1.611691 0.000001 -0.000002 -0.000003 21.593672 -9.773716 -1.946794 -0.402752 -0.370433 -26.847602 0.000000 0.000001 0.000002 -0.091631 1.007706 -8.121055 -0.370760 -1.409697 -20.351266 -0.000002 -0.000001 -0.000001 -0.024497 7.575937 -14.254624 -0.304295 -2.196710 -23.005660 0.000002 -0.000001 0.000001 -0.217961 13.348964 -9.036730 -0.600358 -5.650836 -32.364735 -0.000003 -0.000001 -0.000003 0.000000 0.000001 0.000001 0.000000 0.000001 0.000001 -0.000001 0.000001 0.000001 -0.000001 0.000000 0.000001 -0.000000 0.000000 0.000000 -0.000001 0.000000 0.000001 -0.000000 -0.000000 0.000000 3.613873 -3.534524 14.457951 22.987427 -20.746307 60.603012 33.794417 50.608925 -2.366794 15.766792 -18.584579 12.565873 -6.896635 1.280035 -10.377016 -0.248859 -1.385118 -1.006626 0.000001 0.000003 -0.000002 -1.192932 0.896057 8.123534 0.086699 -1.085290 17.300746 0.000000 -0.000003 0.000003 -1.222799 -0.810710 6.679953 -0.436401 1.313042 24.204456 -0.000002 -0.000000 0.000000 1.940197 -0.182598 -0.532377 -2.330811 4.939935 57.979768 -0.000003 0.000002 0.000003 2.010518 -3.784373 6.925161 -2.044142 8.418493 51.325890 -0.000001 -0.000000 -0.000001 -0.000000 0.000001 0.000002 -0.000000 -0.000000 0.000000 -0.000000 0.000001 0.000001 -0.000001 -0.000001 -0.000001 -0.000001 -0.000001 -0.000000 -0.000001 -0.000001 -0.000001 -0.000001 -0.000001 0.000002 0.000002 -0.000001 0.000003 0.000002 -0.000001 0.000003 0.000002 -0.000001 0.000003 0.000002 -0.000001 0.000003 0.000002 -0.000001 0.000003 0.000002 -0.000001 0.000003 0.000002 -0.000001 0.000003 -0.000000 0.000002 0.000001 -0.000000 0.000002 -0.000001 
